<svg data-v-fde0c5aa="" xmlns="http://www.w3.org/2000/svg" viewBox="0 70 300 150" class="iconLeft"><!----><defs data-v-fde0c5aa=""><!----></defs><rect data-v-fde0c5aa="" fill="transparent" x="0" y="0" width="100px" height="60px" class="logo-background"></rect><defs data-v-fde0c5aa=""><!----></defs><g data-v-fde0c5aa="" id="68522519-c8f0-4634-9f30-4146e77c5e55" fill="#321E0F" transform="matrix(3.4621359991689857,0,0,3.4621359991689857,110.24530154280164,120.43162693119623)"><path d="M7.75 13.23L7.75 13.23L7.75 13.23Q7.62 13.43 7.44 13.53L7.44 13.53L7.44 13.53Q7.26 13.63 7.10 13.67L7.10 13.67L7.10 13.67Q6.90 13.73 6.69 13.71L6.69 13.71L6.69 13.71Q6.60 13.71 6.51 13.67L6.51 13.67L6.51 13.67Q6.43 13.64 6.33 13.60L6.33 13.60L6.33 13.60Q6.23 13.55 6.17 13.45L6.17 13.45L6.17 13.45Q5.97 12.77 5.82 12.13L5.82 12.13L5.82 12.13Q5.67 11.48 5.56 10.98L5.56 10.98L5.56 10.98Q5.43 10.39 5.33 9.87L5.33 9.87L5.33 9.87Q4.96 9.86 4.23 9.86L4.23 9.86L4.23 9.86Q3.50 9.87 2.65 9.95L2.65 9.95L2.65 9.95Q2.39 10.77 2.24 11.33L2.24 11.33L2.24 11.33Q2.09 11.89 2.02 12.26L2.02 12.26L2.02 12.26Q1.96 12.63 1.97 12.87L1.97 12.87L1.97 12.87Q1.98 13.11 2.05 13.29L2.05 13.29L2.05 13.29Q1.86 13.48 1.67 13.57L1.67 13.57L1.67 13.57Q1.49 13.66 1.34 13.69L1.34 13.69L1.34 13.69Q1.16 13.73 1.00 13.71L1.00 13.71L1.00 13.71Q0.78 13.69 0.64 13.64L0.64 13.64L0.64 13.64Q0.51 13.59 0.44 13.49L0.44 13.49L0.44 13.49Q0.38 13.38 0.40 13.19L0.40 13.19L0.40 13.19Q0.42 13.00 0.51 12.69L0.51 12.69L0.51 12.69Q0.59 12.41 0.81 11.71L0.81 11.71L0.81 11.71Q1.04 11.01 1.33 10.10L1.33 10.10L1.33 10.10Q0.81 10.14 0.53 10.05L0.53 10.05L0.53 10.05Q0.25 9.95 0.14 9.53L0.14 9.53L0.14 9.53Q0.36 9.46 0.61 9.40L0.61 9.40L0.61 9.40Q0.86 9.34 1.09 9.28L1.09 9.28L1.09 9.28Q1.35 9.23 1.63 9.19L1.63 9.19L1.63 9.19Q1.91 8.29 2.21 7.41L2.21 7.41L2.21 7.41Q2.52 6.54 2.78 5.84L2.78 5.84L3.57 3.72L3.57 3.72Q3.60 3.64 3.86 3.54L3.86 3.54L3.86 3.54Q4.12 3.45 4.43 3.38L4.43 3.38L4.43 3.38Q4.74 3.32 5.03 3.32L5.03 3.32L5.03 3.32Q5.32 3.32 5.40 3.45L5.40 3.45L5.40 3.45Q5.44 3.73 5.52 4.16L5.52 4.16L5.52 4.16Q5.59 4.58 5.66 4.98L5.66 4.98L5.66 4.98Q5.74 5.44 5.85 5.93L5.85 5.93L5.85 5.93Q5.97 6.62 6.12 7.45L6.12 7.45L6.12 7.45Q6.26 8.29 6.48 9.23L6.48 9.23L6.48 9.23Q6.70 10.17 7 11.18L7 11.18L7 11.18Q7.30 12.20 7.75 13.23ZM3.95 8.96L3.95 8.96L3.95 8.96Q4.39 8.94 4.68 8.94L4.68 8.94L4.68 8.94Q4.96 8.94 5.17 8.96L5.17 8.96L5.13 8.75L5.13 8.75Q5.04 8.24 4.96 7.67L4.96 7.67L4.96 7.67Q4.87 7.10 4.78 6.54L4.78 6.54L4.78 6.54Q4.69 5.97 4.61 5.47L4.61 5.47L4.61 5.47Q4.53 4.96 4.47 4.58L4.47 4.58L4.47 4.58Q4.33 4.94 4.16 5.43L4.16 5.43L4.16 5.43Q3.98 5.93 3.77 6.52L3.77 6.52L3.77 6.52Q3.57 7.11 3.36 7.75L3.36 7.75L3.36 7.75Q3.14 8.39 2.94 9.02L2.94 9.02L2.94 9.02Q3.19 9.00 3.43 8.98L3.43 8.98L3.43 8.98Q3.68 8.97 3.95 8.96ZM11.96 11.16L11.96 11.16L11.96 11.16Q11.83 10.73 11.70 10.40L11.70 10.40L11.70 10.40Q11.57 10.08 11.47 9.84L11.47 9.84L11.47 9.84Q10.94 10.02 10.31 10.09L10.31 10.09L10.31 10.09Q10.31 10.96 10.35 11.58L10.35 11.58L10.35 11.58Q10.36 11.96 10.38 12.23L10.38 12.23L10.38 12.23Q10.40 12.50 10.42 12.69L10.42 12.69L10.42 12.69Q10.45 12.88 10.47 13.04L10.47 13.04L10.47 13.04Q10.50 13.19 10.55 13.34L10.55 13.34L10.55 13.34Q10.28 13.55 10.03 13.64L10.03 13.64L10.03 13.64Q9.78 13.74 9.58 13.78L9.58 13.78L9.58 13.78Q9.35 13.84 9.17 13.81L9.17 13.81L9.17 13.81Q9.11 13.62 9.05 13.41L9.05 13.41L9.05 13.41Q9.00 13.19 8.98 12.83L8.98 12.83L8.98 12.83Q8.96 12.47 8.96 11.91L8.96 11.91L8.96 11.91Q8.96 11.35 9.00 10.47L9.00 10.47L9.00 10.47Q9.01 10.38 9.01 10.28L9.01 10.28L9.01 10.28Q9.01 10.19 9.02 10.09L9.02 10.09L9.02 10.09Q8.90 10.08 8.77 10.06L8.77 10.06L8.77 10.06Q8.64 10.05 8.52 10.04L8.52 10.04L8.52 10.04Q8.44 9.82 8.41 9.65L8.41 9.65L8.41 9.65Q8.38 9.47 8.38 9.37L8.38 9.37L8.38 9.37Q8.38 9.23 8.41 9.15L8.41 9.15L8.41 9.15Q8.63 9.19 8.85 9.19L8.85 9.19L9.05 9.19L9.05 9.19Q9.08 8.61 9.11 8.02L9.11 8.02L9.11 8.02Q9.13 7.42 9.15 6.86L9.15 6.86L9.15 6.86Q9.17 6.29 9.19 5.78L9.19 5.78L9.19 5.78Q9.20 5.26 9.21 4.84L9.21 4.84L9.21 4.84Q8.80 5.11 8.50 5.55L8.50 5.55L8.50 5.55Q8.20 5.99 8.09 6.56L8.09 6.56L8.09 6.56Q7.92 6.54 7.79 6.39L7.79 6.39L7.79 6.39Q7.67 6.25 7.59 6.10L7.59 6.10L7.59 6.10Q7.49 5.92 7.42 5.70L7.42 5.70L7.42 5.70Q7.36 5.44 7.42 5.17L7.42 5.17L7.42 5.17Q7.49 4.91 7.63 4.67L7.63 4.67L7.63 4.67Q7.77 4.43 7.94 4.25L7.94 4.25L7.94 4.25Q8.12 4.06 8.29 3.95L8.29 3.95L8.29 3.95Q8.57 3.77 8.88 3.63L8.88 3.63L8.88 3.63Q9.19 3.49 9.57 3.39L9.57 3.39L9.57 3.39Q9.72 3.24 9.91 3.12L9.91 3.12L9.91 3.12Q10.09 2.99 10.25 2.97L10.25 2.97L10.25 2.97Q10.49 2.91 10.51 3.25L10.51 3.25L10.51 3.25Q10.64 3.24 10.77 3.23L10.77 3.23L10.77 3.23Q10.91 3.23 11.06 3.23L11.06 3.23L11.06 3.23Q11.58 3.23 12.14 3.39L12.14 3.39L12.14 3.39Q12.70 3.55 13.17 3.92L13.17 3.92L13.17 3.92Q13.64 4.28 13.95 4.86L13.95 4.86L13.95 4.86Q14.25 5.44 14.25 6.28L14.25 6.28L14.25 6.28Q14.25 7.22 13.80 8.01L13.80 8.01L13.80 8.01Q13.36 8.80 12.54 9.32L12.54 9.32L12.54 9.32Q12.63 9.57 12.78 9.94L12.78 9.94L12.78 9.94Q12.93 10.31 13.08 10.77L13.08 10.77L13.08 10.77Q13.30 11.35 13.56 11.85L13.56 11.85L13.56 11.85Q13.81 12.35 14.08 12.71L14.08 12.71L14.08 12.71Q14.36 13.08 14.66 13.31L14.66 13.31L14.66 13.31Q14.96 13.54 15.26 13.58L15.26 13.58L15.26 13.58Q15.08 13.85 14.85 13.96L14.85 13.96L14.85 13.96Q14.62 14.07 14.38 14.10L14.38 14.10L14.38 14.10Q14.12 14.14 13.84 14.10L13.84 14.10L13.84 14.10Q13.44 14.01 13.15 13.71L13.15 13.71L13.15 13.71Q12.87 13.41 12.65 12.99L12.65 12.99L12.65 12.99Q12.44 12.56 12.27 12.08L12.27 12.08L12.27 12.08Q12.10 11.59 11.96 11.16ZM10.38 5.33L10.38 5.33L10.38 5.33Q10.38 5.63 10.36 6.06L10.36 6.06L10.36 6.06Q10.35 6.48 10.34 6.97L10.34 6.97L10.34 6.97Q10.34 7.46 10.32 8.00L10.32 8.00L10.32 8.00Q10.31 8.54 10.31 9.08L10.31 9.08L10.31 9.08Q10.68 9.02 11.12 8.90L11.12 8.90L11.12 8.90Q11.57 8.78 11.95 8.49L11.95 8.49L11.95 8.49Q12.33 8.20 12.59 7.72L12.59 7.72L12.59 7.72Q12.85 7.25 12.85 6.49L12.85 6.49L12.85 6.49Q12.85 5.92 12.65 5.52L12.65 5.52L12.65 5.52Q12.46 5.11 12.14 4.86L12.14 4.86L12.14 4.86Q11.83 4.61 11.45 4.49L11.45 4.49L11.45 4.49Q11.07 4.38 10.71 4.38L10.71 4.38L10.71 4.38Q10.64 4.38 10.57 4.38L10.57 4.38L10.57 4.38Q10.50 4.38 10.42 4.39L10.42 4.39L10.42 4.39Q10.38 4.83 10.38 5.33ZM14.51 5.06L14.51 5.06L14.51 5.06Q14.44 4.98 14.40 4.87L14.40 4.87L14.40 4.87Q14.36 4.76 14.33 4.65L14.33 4.65L14.33 4.65Q14.30 4.53 14.29 4.40L14.29 4.40L14.29 4.17L14.29 4.17Q14.29 4.07 14.30 3.99L14.30 3.99L14.30 3.99Q14.31 3.90 14.37 3.84L14.37 3.84L14.37 3.84Q14.79 3.73 15.29 3.67L15.29 3.67L15.29 3.67Q15.78 3.61 16.21 3.55L16.21 3.55L16.21 3.55Q16.72 3.50 17.21 3.46L17.21 3.46L17.21 3.46Q17.35 3.36 17.46 3.32L17.46 3.32L17.46 3.32Q17.57 3.28 17.64 3.32L17.64 3.32L17.64 3.32Q17.66 3.32 17.69 3.43L17.69 3.43L17.75 3.43L17.75 3.43Q18.24 3.42 18.69 3.40L18.69 3.40L18.69 3.40Q19.07 3.39 19.45 3.40L19.45 3.40L19.45 3.40Q19.82 3.40 20.03 3.42L20.03 3.42L20.03 3.42Q20.14 3.43 20.19 3.58L20.19 3.58L20.19 3.58Q20.25 3.73 20.23 3.96L20.23 3.96L20.23 3.96Q20.21 4.20 20.10 4.47L20.10 4.47L20.10 4.47Q19.99 4.74 19.74 4.99L19.74 4.99L19.74 4.99Q19.43 4.91 19.09 4.87L19.09 4.87L19.09 4.87Q18.74 4.84 18.47 4.81L18.47 4.81L18.47 4.81Q18.13 4.79 17.83 4.79L17.83 4.79L17.76 4.79L17.76 4.79Q17.77 5.33 17.77 6.00L17.77 6.00L17.77 6.00Q17.77 6.66 17.77 7.33L17.77 7.33L17.77 7.33Q17.76 8.01 17.75 8.66L17.75 8.66L17.75 8.66Q17.73 9.31 17.72 9.82L17.72 9.82L17.72 9.82Q17.72 10.62 17.72 11.20L17.72 11.20L17.72 11.20Q17.72 11.79 17.76 12.19L17.76 12.19L17.76 12.19Q17.80 12.59 17.88 12.84L17.88 12.84L17.88 12.84Q17.96 13.08 18.12 13.23L18.12 13.23L18.12 13.23Q18.10 13.25 18.04 13.32L18.04 13.32L18.04 13.32Q17.98 13.40 17.88 13.48L17.88 13.48L17.88 13.48Q17.77 13.56 17.63 13.63L17.63 13.63L17.63 13.63Q17.49 13.70 17.31 13.69L17.31 13.69L17.31 13.69Q16.86 13.67 16.64 13.38L16.64 13.38L16.64 13.38Q16.42 13.10 16.34 12.58L16.34 12.58L16.34 12.58Q16.26 12.06 16.28 11.32L16.28 11.32L16.28 11.32Q16.30 10.58 16.35 9.64L16.35 9.64L16.35 9.64Q16.39 9.00 16.43 8.31L16.43 8.31L16.43 8.31Q16.46 7.63 16.50 6.99L16.50 6.99L16.50 6.99Q16.53 6.36 16.56 5.80L16.56 5.80L16.56 5.80Q16.58 5.25 16.61 4.84L16.61 4.84L16.61 4.84Q16.27 4.85 15.91 4.89L15.91 4.89L15.91 4.89Q15.60 4.92 15.23 4.96L15.23 4.96L15.23 4.96Q14.86 5.00 14.51 5.06ZM20.07 4.98L20.07 4.98L20.07 4.98Q19.99 4.89 19.94 4.79L19.94 4.79L19.94 4.79Q19.89 4.68 19.87 4.58L19.87 4.58L19.87 4.58Q19.82 4.47 19.82 4.35L19.82 4.35L19.82 4.35Q19.81 4.24 19.82 4.13L19.82 4.13L19.82 4.13Q19.84 4.05 19.85 3.96L19.85 3.96L19.85 3.96Q19.87 3.87 19.92 3.83L19.92 3.83L19.92 3.83Q20.03 3.80 20.17 3.78L20.17 3.78L20.17 3.78Q20.32 3.76 20.44 3.73L20.44 3.73L20.44 3.73Q20.59 3.71 20.74 3.68L20.74 3.68L20.74 3.68Q20.79 3.60 20.97 3.51L20.97 3.51L20.97 3.51Q21.14 3.42 21.33 3.35L21.33 3.35L21.33 3.35Q21.53 3.28 21.71 3.25L21.71 3.25L21.71 3.25Q21.89 3.21 21.96 3.25L21.96 3.25L21.96 3.54L21.96 3.54Q22.31 3.50 22.70 3.47L22.70 3.47L22.70 3.47Q23.08 3.43 23.52 3.43L23.52 3.43L23.52 3.43Q24.05 3.42 24.51 3.40L24.51 3.40L24.51 3.40Q24.91 3.39 25.31 3.40L25.31 3.40L25.31 3.40Q25.72 3.40 25.94 3.42L25.94 3.42L25.94 3.42Q26.04 3.43 26.11 3.58L26.11 3.58L26.11 3.58Q26.17 3.72 26.15 3.94L26.15 3.94L26.15 3.94Q26.13 4.16 26.00 4.42L26.00 4.42L26.00 4.42Q25.88 4.68 25.62 4.91L25.62 4.91L25.62 4.91Q25.29 4.84 24.94 4.80L24.94 4.80L24.94 4.80Q24.58 4.76 24.28 4.73L24.28 4.73L24.28 4.73Q23.93 4.70 23.60 4.72L23.60 4.72L23.60 4.72Q23.17 4.72 22.76 4.74L22.76 4.74L22.76 4.74Q22.35 4.76 21.97 4.79L21.97 4.79L21.97 4.79Q21.98 5.46 21.99 6.31L21.99 6.31L21.99 6.31Q22.00 7.16 22.01 8.04L22.01 8.04L22.01 8.04Q22.19 8.03 22.37 8.01L22.37 8.01L22.37 8.01Q22.54 8.00 22.74 7.98L22.74 7.98L22.74 7.98Q23.23 7.96 23.70 7.93L23.70 7.93L23.70 7.93Q24.17 7.90 24.52 7.95L24.52 7.95L24.52 7.95Q24.87 8.00 25.05 8.16L25.05 8.16L25.05 8.16Q25.22 8.33 25.13 8.68L25.13 8.68L24.94 9.34L24.94 9.34Q24.91 9.27 24.79 9.22L24.79 9.22L24.79 9.22Q24.68 9.17 24.53 9.15L24.53 9.15L24.53 9.15Q24.36 9.11 24.16 9.08L24.16 9.08L24.16 9.08Q23.68 9.02 23.11 9.06L23.11 9.06L23.11 9.06Q22.53 9.11 22.01 9.19L22.01 9.19L22.01 9.20L22.01 9.20Q22.03 10.40 22.00 11.20L22.00 11.20L22.00 11.20Q21.98 11.99 21.96 12.43L21.96 12.43L21.96 12.43Q22.13 12.40 22.31 12.39L22.31 12.39L22.31 12.39Q22.48 12.37 22.67 12.35L22.67 12.35L22.67 12.35Q23.16 12.30 23.69 12.29L23.69 12.29L23.69 12.29Q24.14 12.28 24.70 12.28L24.70 12.28L24.70 12.28Q25.25 12.29 25.77 12.36L25.77 12.36L25.77 12.36Q25.85 12.50 25.83 12.71L25.83 12.71L25.83 12.71Q25.80 12.93 25.73 13.14L25.73 13.14L25.73 13.14Q25.65 13.38 25.53 13.66L25.53 13.66L25.53 13.66Q24.91 13.59 24.34 13.56L24.34 13.56L24.34 13.56Q23.76 13.54 23.31 13.52L23.31 13.52L23.31 13.52Q22.78 13.51 22.31 13.52L22.31 13.52L22.31 13.52Q21.46 13.49 20.97 13.61L20.97 13.61L20.97 13.61Q20.48 13.73 20.28 13.78L20.28 13.78L20.28 13.78Q20.14 13.82 20.07 13.74L20.07 13.74L20.07 13.74Q20.00 13.66 19.92 13.47L19.92 13.47L19.92 13.47Q19.84 13.29 19.87 12.96L19.87 12.96L19.87 12.96Q19.87 12.93 19.88 12.89L19.88 12.89L19.88 12.89Q19.89 12.84 19.96 12.81L19.96 12.81L19.96 12.81Q20.04 12.78 20.22 12.74L20.22 12.74L20.22 12.74Q20.40 12.70 20.66 12.65L20.66 12.65L20.66 12.65Q20.69 12.09 20.70 11.22L20.70 11.22L20.70 11.22Q20.71 10.36 20.74 9.47L20.74 9.47L20.74 9.47Q20.51 9.43 20.33 9.10L20.33 9.10L20.33 9.10Q20.15 8.76 20.17 8.35L20.17 8.35L20.17 8.35Q20.25 8.33 20.35 8.31L20.35 8.31L20.35 8.31Q20.45 8.30 20.55 8.27L20.55 8.27L20.55 8.27Q20.66 8.24 20.77 8.23L20.77 8.23L20.77 8.23Q20.78 7.88 20.78 7.59L20.78 7.59L20.78 7.59Q20.78 7.30 20.79 7.08L20.79 7.08L20.79 7.08Q20.82 6.51 20.81 5.94L20.81 5.94L20.81 5.94Q20.79 5.37 20.78 4.89L20.78 4.89L20.78 4.89Q20.66 4.91 20.52 4.92L20.52 4.92L20.52 4.92Q20.41 4.94 20.29 4.95L20.29 4.95L20.29 4.95Q20.17 4.96 20.07 4.98ZM30.15 11.16L30.15 11.16L30.15 11.16Q30.01 10.73 29.88 10.40L29.88 10.40L29.88 10.40Q29.75 10.08 29.65 9.84L29.65 9.84L29.65 9.84Q29.12 10.02 28.49 10.09L28.49 10.09L28.49 10.09Q28.49 10.96 28.53 11.58L28.53 11.58L28.53 11.58Q28.55 11.96 28.57 12.23L28.57 12.23L28.57 12.23Q28.59 12.50 28.61 12.69L28.61 12.69L28.61 12.69Q28.63 12.88 28.66 13.04L28.66 13.04L28.66 13.04Q28.68 13.19 28.74 13.34L28.74 13.34L28.74 13.34Q28.46 13.55 28.21 13.64L28.21 13.64L28.21 13.64Q27.96 13.74 27.77 13.78L27.77 13.78L27.77 13.78Q27.54 13.84 27.36 13.81L27.36 13.81L27.36 13.81Q27.29 13.62 27.23 13.41L27.23 13.41L27.23 13.41Q27.18 13.19 27.16 12.83L27.16 12.83L27.16 12.83Q27.14 12.47 27.14 11.91L27.14 11.91L27.14 11.91Q27.14 11.35 27.18 10.47L27.18 10.47L27.18 10.47Q27.19 10.38 27.19 10.28L27.19 10.28L27.19 10.28Q27.19 10.19 27.21 10.09L27.21 10.09L27.21 10.09Q27.08 10.08 26.95 10.06L26.95 10.06L26.95 10.06Q26.82 10.05 26.70 10.04L26.70 10.04L26.70 10.04Q26.62 9.82 26.59 9.65L26.59 9.65L26.59 9.65Q26.56 9.47 26.56 9.37L26.56 9.37L26.56 9.37Q26.56 9.23 26.59 9.15L26.59 9.15L26.59 9.15Q26.81 9.19 27.03 9.19L27.03 9.19L27.23 9.19L27.23 9.19Q27.26 8.61 27.29 8.02L27.29 8.02L27.29 8.02Q27.32 7.42 27.34 6.86L27.34 6.86L27.34 6.86Q27.36 6.29 27.37 5.78L27.37 5.78L27.37 5.78Q27.38 5.26 27.40 4.84L27.40 4.84L27.40 4.84Q26.99 5.11 26.69 5.55L26.69 5.55L26.69 5.55Q26.39 5.99 26.28 6.56L26.28 6.56L26.28 6.56Q26.10 6.54 25.98 6.39L25.98 6.39L25.98 6.39Q25.85 6.25 25.77 6.10L25.77 6.10L25.77 6.10Q25.68 5.92 25.61 5.70L25.61 5.70L25.61 5.70Q25.54 5.44 25.61 5.17L25.61 5.17L25.61 5.17Q25.68 4.91 25.81 4.67L25.81 4.67L25.81 4.67Q25.95 4.43 26.13 4.25L26.13 4.25L26.13 4.25Q26.30 4.06 26.47 3.95L26.47 3.95L26.47 3.95Q26.76 3.77 27.06 3.63L27.06 3.63L27.06 3.63Q27.37 3.49 27.75 3.39L27.75 3.39L27.75 3.39Q27.90 3.24 28.09 3.12L28.09 3.12L28.09 3.12Q28.27 2.99 28.44 2.97L28.44 2.97L28.44 2.97Q28.67 2.91 28.70 3.25L28.70 3.25L28.70 3.25Q28.82 3.24 28.96 3.23L28.96 3.23L28.96 3.23Q29.09 3.23 29.24 3.23L29.24 3.23L29.24 3.23Q29.76 3.23 30.32 3.39L30.32 3.39L30.32 3.39Q30.88 3.55 31.36 3.92L31.36 3.92L31.36 3.92Q31.83 4.28 32.13 4.86L32.13 4.86L32.13 4.86Q32.43 5.44 32.43 6.28L32.43 6.28L32.43 6.28Q32.43 7.22 31.99 8.01L31.99 8.01L31.99 8.01Q31.54 8.80 30.72 9.32L30.72 9.32L30.72 9.32Q30.82 9.57 30.97 9.94L30.97 9.94L30.97 9.94Q31.12 10.31 31.27 10.77L31.27 10.77L31.27 10.77Q31.49 11.35 31.74 11.85L31.74 11.85L31.74 11.85Q31.99 12.35 32.27 12.71L32.27 12.71L32.27 12.71Q32.54 13.08 32.84 13.31L32.84 13.31L32.84 13.31Q33.14 13.54 33.44 13.58L33.44 13.58L33.44 13.58Q33.26 13.85 33.03 13.96L33.03 13.96L33.03 13.96Q32.80 14.07 32.57 14.10L32.57 14.10L32.57 14.10Q32.31 14.14 32.02 14.10L32.02 14.10L32.02 14.10Q31.62 14.01 31.34 13.71L31.34 13.71L31.34 13.71Q31.05 13.41 30.84 12.99L30.84 12.99L30.84 12.99Q30.63 12.56 30.45 12.08L30.45 12.08L30.45 12.08Q30.28 11.59 30.15 11.16ZM28.56 5.33L28.56 5.33L28.56 5.33Q28.56 5.63 28.55 6.06L28.55 6.06L28.55 6.06Q28.53 6.48 28.53 6.97L28.53 6.97L28.53 6.97Q28.52 7.46 28.51 8.00L28.51 8.00L28.51 8.00Q28.49 8.54 28.49 9.08L28.49 9.08L28.49 9.08Q28.86 9.02 29.31 8.90L29.31 8.90L29.31 8.90Q29.75 8.78 30.13 8.49L30.13 8.49L30.13 8.49Q30.52 8.20 30.78 7.72L30.78 7.72L30.78 7.72Q31.04 7.25 31.04 6.49L31.04 6.49L31.04 6.49Q31.04 5.92 30.84 5.52L30.84 5.52L30.84 5.52Q30.64 5.11 30.32 4.86L30.32 4.86L30.32 4.86Q30.01 4.61 29.63 4.49L29.63 4.49L29.63 4.49Q29.26 4.38 28.89 4.38L28.89 4.38L28.89 4.38Q28.82 4.38 28.75 4.38L28.75 4.38L28.75 4.38Q28.68 4.38 28.60 4.39L28.60 4.39L28.60 4.39Q28.56 4.83 28.56 5.33ZM33.93 4.72L33.93 4.72L33.93 4.72Q33.74 4.76 33.56 4.81L33.56 4.81L33.56 4.81Q33.41 4.87 33.23 4.93L33.23 4.93L33.23 4.93Q33.04 4.99 32.88 5.07L32.88 5.07L32.88 5.07Q32.83 4.87 32.78 4.62L32.78 4.62L32.78 4.62Q32.73 4.38 32.76 4.15L32.76 4.15L32.76 4.15Q32.79 3.92 32.92 3.75L32.92 3.75L32.92 3.75Q33.04 3.58 33.36 3.55L33.36 3.55L33.36 3.55Q33.66 3.51 34.06 3.50L34.06 3.50L34.06 3.50Q34.45 3.49 34.88 3.49L34.88 3.49L34.88 3.49Q35.31 3.49 35.77 3.51L35.77 3.51L35.77 3.51Q36.22 3.53 36.65 3.58L36.65 3.58L36.65 3.58Q36.68 3.80 36.70 3.96L36.70 3.96L36.70 3.96Q36.71 4.12 36.71 4.22L36.71 4.22L36.71 4.44L36.71 4.44Q36.71 4.53 36.68 4.58L36.68 4.58L36.68 4.58Q36.63 4.72 36.49 4.76L36.49 4.76L36.49 4.76Q36.34 4.72 36.14 4.70L36.14 4.70L36.14 4.70Q35.94 4.68 35.75 4.65L35.75 4.65L35.75 4.65Q35.53 4.62 35.30 4.61L35.30 4.61L35.30 4.61Q35.33 5.09 35.35 6.00L35.35 6.00L35.35 6.00Q35.37 6.90 35.34 8.38L35.34 8.38L35.34 8.38Q35.31 9.88 35.29 10.83L35.29 10.83L35.29 10.83Q35.27 11.79 35.26 12.30L35.26 12.30L35.26 12.30Q35.78 12.35 36.03 12.48L36.03 12.48L36.03 12.48Q36.29 12.61 36.37 12.78L36.37 12.78L36.37 12.78Q36.46 12.95 36.44 13.15L36.44 13.15L36.44 13.15Q36.42 13.36 36.41 13.55L36.41 13.55L36.41 13.55Q36.18 13.49 35.88 13.47L35.88 13.47L35.88 13.47Q35.59 13.45 35.33 13.45L35.33 13.45L35.33 13.45Q35.03 13.45 34.71 13.48L34.71 13.48L34.71 13.48Q34.36 13.51 34.03 13.56L34.03 13.56L34.03 13.56Q33.76 13.62 33.48 13.70L33.48 13.70L33.48 13.70Q33.21 13.78 33.07 13.93L33.07 13.93L33.07 13.93Q32.96 13.73 32.91 13.49L32.91 13.49L32.91 13.49Q32.85 13.30 32.83 13.04L32.83 13.04L32.83 13.04Q32.80 12.78 32.84 12.51L32.84 12.51L32.84 12.51Q32.99 12.46 33.18 12.42L33.18 12.42L33.18 12.42Q33.37 12.39 33.54 12.36L33.54 12.36L33.54 12.36Q33.73 12.33 33.93 12.32L33.93 12.32L33.93 12.32Q33.96 11.88 34.00 11.09L34.00 11.09L34.00 11.09Q34.04 10.31 34.07 8.98L34.07 8.98L34.07 8.98Q34.10 7.31 34.04 6.27L34.04 6.27L34.04 6.27Q33.99 5.22 33.93 4.72ZM37.17 4.98L37.17 4.98L37.17 4.98Q37.09 4.89 37.04 4.79L37.04 4.79L37.04 4.79Q37.00 4.68 36.97 4.58L36.97 4.58L36.97 4.58Q36.93 4.47 36.93 4.35L36.93 4.35L36.93 4.35Q36.91 4.24 36.93 4.13L36.93 4.13L36.93 4.13Q36.94 4.05 36.96 3.96L36.96 3.96L36.96 3.96Q36.97 3.87 37.02 3.83L37.02 3.83L37.02 3.83Q37.13 3.80 37.28 3.78L37.28 3.78L37.28 3.78Q37.42 3.76 37.54 3.73L37.54 3.73L37.54 3.73Q37.69 3.71 37.84 3.68L37.84 3.68L37.84 3.68Q37.90 3.60 38.07 3.51L38.07 3.51L38.07 3.51Q38.24 3.42 38.44 3.35L38.44 3.35L38.44 3.35Q38.64 3.28 38.81 3.25L38.81 3.25L38.81 3.25Q38.99 3.21 39.06 3.25L39.06 3.25L39.06 3.54L39.06 3.54Q39.42 3.50 39.80 3.47L39.80 3.47L39.80 3.47Q40.18 3.43 40.62 3.43L40.62 3.43L40.62 3.43Q41.15 3.42 41.62 3.40L41.62 3.40L41.62 3.40Q42.01 3.39 42.42 3.40L42.42 3.40L42.42 3.40Q42.82 3.40 43.04 3.42L43.04 3.42L43.04 3.42Q43.15 3.43 43.21 3.58L43.21 3.58L43.21 3.58Q43.27 3.72 43.25 3.94L43.25 3.94L43.25 3.94Q43.23 4.16 43.11 4.42L43.11 4.42L43.11 4.42Q42.98 4.68 42.72 4.91L42.72 4.91L42.72 4.91Q42.40 4.84 42.04 4.80L42.04 4.80L42.04 4.80Q41.69 4.76 41.38 4.73L41.38 4.73L41.38 4.73Q41.03 4.70 40.70 4.72L40.70 4.72L40.70 4.72Q40.28 4.72 39.87 4.74L39.87 4.74L39.87 4.74Q39.46 4.76 39.07 4.79L39.07 4.79L39.07 4.79Q39.09 5.46 39.09 6.31L39.09 6.31L39.09 6.31Q39.10 7.16 39.12 8.04L39.12 8.04L39.12 8.04Q39.29 8.03 39.47 8.01L39.47 8.01L39.47 8.01Q39.65 8.00 39.84 7.98L39.84 7.98L39.84 7.98Q40.33 7.96 40.80 7.93L40.80 7.93L40.80 7.93Q41.28 7.90 41.62 7.95L41.62 7.95L41.62 7.95Q41.97 8.00 42.15 8.16L42.15 8.16L42.15 8.16Q42.33 8.33 42.23 8.68L42.23 8.68L42.04 9.34L42.04 9.34Q42.01 9.27 41.90 9.22L41.90 9.22L41.90 9.22Q41.78 9.17 41.63 9.15L41.63 9.15L41.63 9.15Q41.47 9.11 41.26 9.08L41.26 9.08L41.26 9.08Q40.78 9.02 40.21 9.06L40.21 9.06L40.21 9.06Q39.63 9.11 39.12 9.19L39.12 9.19L39.12 9.20L39.12 9.20Q39.13 10.40 39.11 11.20L39.11 11.20L39.11 11.20Q39.09 11.99 39.06 12.43L39.06 12.43L39.06 12.43Q39.24 12.40 39.41 12.39L39.41 12.39L39.41 12.39Q39.58 12.37 39.77 12.35L39.77 12.35L39.77 12.35Q40.26 12.30 40.80 12.29L40.80 12.29L40.80 12.29Q41.25 12.28 41.80 12.28L41.80 12.28L41.80 12.28Q42.36 12.29 42.88 12.36L42.88 12.36L42.88 12.36Q42.96 12.50 42.93 12.71L42.93 12.71L42.93 12.71Q42.90 12.93 42.83 13.14L42.83 13.14L42.83 13.14Q42.75 13.38 42.63 13.66L42.63 13.66L42.63 13.66Q42.01 13.59 41.44 13.56L41.44 13.56L41.44 13.56Q40.87 13.54 40.41 13.52L40.41 13.52L40.41 13.52Q39.88 13.51 39.42 13.52L39.42 13.52L39.42 13.52Q38.57 13.49 38.08 13.61L38.08 13.61L38.08 13.61Q37.58 13.73 37.38 13.78L37.38 13.78L37.38 13.78Q37.24 13.82 37.17 13.74L37.17 13.74L37.17 13.74Q37.11 13.66 37.02 13.47L37.02 13.47L37.02 13.47Q36.94 13.29 36.97 12.96L36.97 12.96L36.97 12.96Q36.97 12.93 36.98 12.89L36.98 12.89L36.98 12.89Q37.00 12.84 37.06 12.81L37.06 12.81L37.06 12.81Q37.15 12.78 37.32 12.74L37.32 12.74L37.32 12.74Q37.50 12.70 37.76 12.65L37.76 12.65L37.76 12.65Q37.79 12.09 37.80 11.22L37.80 11.22L37.80 11.22Q37.82 10.36 37.84 9.47L37.84 9.47L37.84 9.47Q37.61 9.43 37.43 9.10L37.43 9.10L37.43 9.10Q37.26 8.76 37.27 8.35L37.27 8.35L37.27 8.35Q37.35 8.33 37.45 8.31L37.45 8.31L37.45 8.31Q37.56 8.30 37.65 8.27L37.65 8.27L37.65 8.27Q37.76 8.24 37.87 8.23L37.87 8.23L37.87 8.23Q37.88 7.88 37.88 7.59L37.88 7.59L37.88 7.59Q37.88 7.30 37.90 7.08L37.90 7.08L37.90 7.08Q37.93 6.51 37.91 5.94L37.91 5.94L37.91 5.94Q37.90 5.37 37.88 4.89L37.88 4.89L37.88 4.89Q37.76 4.91 37.63 4.92L37.63 4.92L37.63 4.92Q37.52 4.94 37.39 4.95L37.39 4.95L37.39 4.95Q37.27 4.96 37.17 4.98Z"></path></g><defs data-v-fde0c5aa=""><linearGradient data-v-fde0c5aa="" gradientTransform="rotate(25)" id="3411ed9f-217f-4a62-a26d-74ac55bd919a" x1="0%" y1="0%" x2="100%" y2="0%"><stop data-v-fde0c5aa="" offset="0%" stop-color="#DA6E2A" stop-opacity="1"></stop><stop data-v-fde0c5aa="" offset="100%" stop-color="#E39E5A" stop-opacity="1"></stop></linearGradient></defs><g data-v-fde0c5aa="" id="173664c2-3df5-478f-aaa4-0ff046f287a4" stroke="none" fill="url(#3411ed9f-217f-4a62-a26d-74ac55bd919a)" transform="matrix(0.19307692503260496,0,0,0.19307692503260496,19.437310430147644,100.57767207630408)"><style>.st2{fill:none;stroke:#000;stroke-width:.1;stroke-miterlimit:10}</style><path d="M366.3 235.6c-13.1.2-24.4 8.3-30.8 14.3-1.4-17.5-8.6-33.3-19.6-45.7 8.7.2 24.3-1.2 36.2-13.6 14.3-14.8 11.8-39.9 11.2-40.6-.9-.5-25.9-3-40.6 11.2-12.3 11.8-13.8 27.4-13.6 36.1-12.7-11.3-29.2-18.6-47.2-19.7 6.3-6.1 16.1-18.1 15.8-35-.4-20.5-19.8-36.5-20.8-36.7-.9.2-20.4 16.1-20.8 36.7-.3 16.9 9.4 28.9 15.8 35-18 1.2-34.4 8.3-47.1 19.6 0-8.6-1.8-23.9-11.8-34.2-16.3-16.8-39.6-13.3-42.6-13.1-.2 3-3.7 26.3 13.2 42.5 10.3 10 25.7 11.8 34.2 11.8-11.3 12.7-18.5 29.1-19.7 47.1-6.2-6.3-18.1-16-34.9-15.8-20.5.4-36.5 19.8-36.7 20.8.2.9 16.1 20.4 36.7 20.8 16.8.3 28.9-9.4 34.9-15.8 1.1 17.6 8.1 33.7 19 46.3-9 0-23.5 1.9-34.7 13.6-14.3 14.8-11.8 39.9-11.2 40.6.9.5 25.9 3 40.6-11.2 11.7-11.2 13.6-25.7 13.6-34.6 12.4 10.7 28.2 17.6 45.5 18.9-6.1 6.3-14.7 17.9-15 31.5-.4 23.5 18.5 37.5 20.8 39.4 2.3-1.9 21.2-16 20.8-39.4-.2-13.6-8.8-25.2-14.9-31.5 17.3-1.2 33.1-8.2 45.5-18.9.2 8.7 2.3 23 11.7 32.8 16.3 16.8 39.6 13.3 42.6 13.1.2-3 3.7-26.3-13.2-42.5-9.7-9.4-24-11.5-32.8-11.7 10.6-12.3 17.5-27.8 18.9-45 6.5 6 17.7 14.1 30.8 14.4 23.4.4 37.4-18.5 39.4-20.8-1.7-2.2-15.8-21-39.2-20.7zm-109.4-53.5s0 .1 0 0c0 .1 0 0 0 0zm0 145.4c-39.2 0-71.1-31.9-71.1-71.1s31.9-71.1 71.1-71.1 71.1 31.9 71.1 71.1-32 71.1-71.1 71.1zM256.9 182.1c0 .1 0 0 0 0M256.9 406s0 .1 0 0"></path><path d="M273.5 220c-5.8-.2-11.8 3.7-16.5 8-4.7-4.3-10.5-8-16.5-8-1.3 0-10 .3-16.2 6.9-8 8.5-5.8 20.9-5.5 23 4 24.3 35.6 40.9 38.2 43.1 3.7-1.9 36.9-19.7 38.3-45.6.2-4.5.7-13.6-5.6-20.4-6.1-6.6-14.6-7-16.2-7z"></path></g><!----></svg>