<svg data-v-fde0c5aa="" xmlns="http://www.w3.org/2000/svg" viewBox="0 0 300 300" class="iconLeftSlogan"><!----><defs data-v-fde0c5aa=""><!----></defs><rect data-v-fde0c5aa="" fill="transparent" x="0" y="0" width="300px" height="300px" class="logo-background-square"></rect><defs data-v-fde0c5aa=""><!----></defs><g data-v-fde0c5aa="" id="bc33502d-ab08-44cb-92e6-49477660a320" fill="#000000" transform="matrix(4.058223462550529,0,0,4.058223462550529,110.65737217576134,106.9863512032978)"><path d="M1.91 3.50L0.67 4.09L0.67 12.71L1.90 12.16L1.90 5.83L5.74 12.76L7.28 12.13L7.28 3.55L6.07 4.14L6.06 11.03L1.91 3.50ZM11.51 6.51L11.51 6.51L11.51 6.51Q10.42 6.35 9.48 7.19L9.48 7.19L9.48 7.19Q8.54 8.03 8.28 9.15L8.28 9.15L8.28 9.15Q8.02 10.27 8.37 11.09L8.37 11.09L8.37 11.09Q8.72 11.91 9.30 12.28L9.30 12.28L9.30 12.28Q9.88 12.66 10.67 12.71L10.67 12.71L10.67 12.71Q11.46 12.76 12.23 12.08L12.23 12.08L12.23 12.08Q13.00 11.41 13.46 10.54L13.46 10.54L13.36 10.47L13.36 10.47Q12.31 11.57 11.23 11.52L11.23 11.52L11.23 11.52Q10.16 11.47 9.82 10.85L9.82 10.85L11.76 9.78L11.76 9.78Q13.21 8.81 12.90 7.75L12.90 7.75L12.90 7.75Q12.59 6.68 11.51 6.51ZM9.29 8.16L9.29 8.16L9.29 8.16Q9.53 7.66 10.14 7.40L10.14 7.40L10.14 7.40Q10.75 7.14 11.30 7.68L11.30 7.68L11.30 7.68Q11.85 8.21 11.68 8.90L11.68 8.90L11.68 8.90Q11.51 9.60 9.60 10.57L9.60 10.57L9.60 10.57Q9.30 10.04 9.17 9.35L9.17 9.35L9.17 9.35Q9.05 8.67 9.29 8.16ZM16.92 11.03L14.83 6.44L13.70 7.03L16.13 12.74L17.33 11.98L17.22 11.65L19.16 6.64L18.70 6.47L16.92 11.03ZM22.75 6.51L22.75 6.51L22.75 6.51Q21.66 6.35 20.72 7.19L20.72 7.19L20.72 7.19Q19.78 8.03 19.52 9.15L19.52 9.15L19.52 9.15Q19.26 10.27 19.61 11.09L19.61 11.09L19.61 11.09Q19.95 11.91 20.54 12.28L20.54 12.28L20.54 12.28Q21.12 12.66 21.91 12.71L21.91 12.71L21.91 12.71Q22.70 12.76 23.47 12.08L23.47 12.08L23.47 12.08Q24.24 11.41 24.70 10.54L24.70 10.54L24.60 10.47L24.60 10.47Q23.55 11.57 22.47 11.52L22.47 11.52L22.47 11.52Q21.40 11.47 21.05 10.85L21.05 10.85L23.00 9.78L23.00 9.78Q24.45 8.81 24.14 7.75L24.14 7.75L24.14 7.75Q23.83 6.68 22.75 6.51ZM20.53 8.16L20.53 8.16L20.53 8.16Q20.77 7.66 21.38 7.40L21.38 7.40L21.38 7.40Q21.99 7.14 22.54 7.68L22.54 7.68L22.54 7.68Q23.08 8.21 22.92 8.90L22.92 8.90L22.92 8.90Q22.75 9.60 20.84 10.57L20.84 10.57L20.84 10.57Q20.54 10.04 20.41 9.35L20.41 9.35L20.41 9.35Q20.29 8.67 20.53 8.16ZM26.74 6.38L25.43 6.89L25.43 12.73L26.80 12.15L26.80 8.05L26.80 8.05Q27.47 7.22 28.45 7.37L28.45 7.37L28.45 7.37Q29.44 7.53 29.40 8.48L29.40 8.48L29.39 12.77L30.73 12.18L30.73 8.25L30.73 8.25Q30.83 7.35 30.17 6.87L30.17 6.87L30.17 6.87Q29.51 6.40 28.54 6.56L28.54 6.56L28.54 6.56Q27.58 6.72 26.74 7.73L26.74 7.73L26.74 6.38ZM33.88 4.44L32.64 4.94L32.64 6.84L32.35 6.84L31.20 7.86L32.63 7.86L32.56 10.19L32.56 10.19Q32.57 11.87 33.44 12.42L33.44 12.42L33.44 12.42Q34.32 12.97 35.22 12.56L35.22 12.56L35.22 12.56Q36.11 12.15 36.43 11.09L36.43 11.09L36.33 10.93L36.33 10.93Q35.44 12.06 34.56 11.64L34.56 11.64L34.56 11.64Q33.69 11.22 33.84 9.78L33.84 9.78L33.89 7.85L34.73 7.85L36.80 6.79L33.87 6.79L33.88 4.44Z"></path></g><defs data-v-fde0c5aa=""><linearGradient data-v-fde0c5aa="" gradientTransform="rotate(25)" id="56e37964-3ddd-4746-9387-d8f6b56e85dd" x1="0%" y1="0%" x2="100%" y2="0%"><stop data-v-fde0c5aa="" offset="0%" stop-color="#B4373D" stop-opacity="1"></stop><stop data-v-fde0c5aa="" offset="100%" stop-color="#B23ACB" stop-opacity="1"></stop></linearGradient></defs><g data-v-fde0c5aa="" id="60cdda7b-c71a-49cc-ab25-45da363517a5" stroke="none" fill="url(#56e37964-3ddd-4746-9387-d8f6b56e85dd)" transform="matrix(1.2075276392679817,0,0,1.2075276392679817,40,108.94406026488862)"><path d="M10.64 1.913c-.534.16-1.044.733-1.14 1.277L1.493 48.397c4.807-3.245 12.43-5.13 21.507-5.37v-14.29l-.796-.399a4 4 0 1 1 1.789-3.578l6.901 3.451a2 2 0 1 1-1.788 3.578L27 30.736v12.29c9.083.24 16.712 2.128 21.518 5.378L40.565 3.21c-.096-.544-.606-1.118-1.132-1.276 0 0-.572-.184-1.385-.393C34.249.564 29.78 0 25 0c-4.747 0-9.186.556-12.966 1.52-.819.21-1.394.393-1.394.393zM0 57.5C0 63.842 11.252 68 25 68s25-4.158 25-10.5l-.001-.104c-.113-5.674-9.443-9.982-22.999-10.368V58a2 2 0 0 1-4 0V47.028C9.444 47.414.114 51.722.001 57.396L0 57.5z"></path></g><defs data-v-fde0c5aa=""><!----></defs><g data-v-fde0c5aa="" id="0a711a51-ebc4-4d47-8210-85d5bca8049b" fill="#000000" transform="matrix(0.38750361050925913,0,0,0.38750361050925913,113.17488009332533,167.68610617034327)"><path d="M0.52 12.39C0.52 12.63 0.53 12.68 0.73 12.68C0.91 12.68 1.29 12.64 1.90 12.64C2.53 12.64 3.09 12.68 3.42 12.68C3.58 12.68 3.58 12.61 3.58 12.40C3.58 12.24 3.58 12.18 3.42 12.18L2.21 12.18C2.17 12.18 2.16 11.54 2.16 10.79C2.16 9.46 2.17 7.48 2.17 5.99C2.17 5.25 2.17 4.84 2.18 4.28C2.18 4.02 2.25 4.14 2.38 4.28L9.27 12.66C9.35 12.75 9.44 12.89 9.55 12.89C9.66 12.89 9.73 12.77 9.73 12.54C9.73 12.39 9.90 6.65 9.91 4.48C9.91 4.06 9.94 3.70 9.97 3.70L10.60 3.70C10.82 3.70 10.88 3.68 10.88 3.49C10.88 3.25 10.88 3.19 10.68 3.19C10.49 3.19 10.05 3.23 9.49 3.23C8.88 3.23 8.08 3.19 7.98 3.19C7.81 3.19 7.81 3.26 7.81 3.47C7.81 3.64 7.81 3.70 7.98 3.70L9.28 3.70C9.30 3.70 9.30 4.33 9.30 4.44C9.30 5.85 9.32 8.33 9.32 9.70L9.32 10.29C9.32 10.57 9.31 10.65 9.09 10.37L3.40 3.39C3.29 3.25 3.26 3.19 3.09 3.19C3.01 3.19 2.63 3.23 2.32 3.23C2.03 3.23 0.95 3.19 0.76 3.19C0.59 3.19 0.56 3.26 0.56 3.47C0.56 3.64 0.59 3.70 0.76 3.70L1.67 3.70C1.67 4.17 1.62 8.53 1.55 10.79C1.53 11.69 1.54 12.18 1.43 12.18L0.78 12.18C0.56 12.18 0.52 12.19 0.52 12.39ZM18.77 12.39C18.77 12.63 18.82 12.68 19.01 12.68C19.33 12.68 20.09 12.64 20.80 12.64C21.46 12.64 22.26 12.68 22.48 12.68C22.65 12.68 22.68 12.61 22.68 12.40C22.68 12.24 22.65 12.18 22.48 12.18L21.52 12.18C21.42 12.18 21.39 9.55 21.39 7.76L21.39 5.87C21.39 5.14 21.42 3.70 21.52 3.70L22.43 3.70C22.65 3.70 22.68 3.68 22.68 3.49C22.68 3.25 22.65 3.19 22.48 3.19C22.16 3.19 21.49 3.23 20.83 3.23C20.02 3.23 19.31 3.19 19.08 3.19C18.90 3.19 18.83 3.21 18.83 3.44C18.83 3.68 18.91 3.70 19.08 3.70L20.01 3.70C20.05 3.70 20.12 4.79 20.12 5.71L20.12 7.08C20.12 8.92 20.10 12.18 19.99 12.18L19.07 12.18C18.84 12.18 18.77 12.19 18.77 12.39ZM30.65 7.91C30.65 11.40 33.01 12.89 35.60 12.89C37.49 12.89 39.49 11.89 39.49 11.58C39.49 11.12 39.51 10.68 39.51 10.33C39.51 9.81 39.52 9.56 39.65 9.56L40.08 9.56C40.22 9.56 40.24 9.39 40.24 9.30C40.24 9.18 40.22 9.06 40.08 9.06C39.86 9.06 39.49 9.10 38.82 9.10C38.37 9.10 37.63 9.07 36.95 9.06C36.81 9.06 36.81 9.24 36.81 9.35C36.81 9.45 36.83 9.56 36.96 9.56L38.18 9.56C38.22 9.56 38.28 9.87 38.28 10.33C38.28 10.82 38.26 11.41 38.23 11.65C38.22 11.76 37.58 12.39 35.99 12.39C33.75 12.39 32.16 10.29 32.16 7.94C32.16 5.42 33.71 3.54 35.71 3.54C37.60 3.54 38.78 4.87 38.78 5.03C38.78 5.15 38.72 6.12 38.72 6.17C38.72 6.31 38.77 6.36 39.03 6.36C39.23 6.36 39.30 6.33 39.30 6.15C39.30 5.43 39.34 3.75 39.34 3.56C39.34 3.36 39.24 3.33 39.03 3.33C38.81 3.33 38.78 3.39 38.78 3.56L38.78 3.91C38.78 3.99 38.74 4.02 38.61 3.92C38.33 3.72 37.34 3.08 35.77 3.08C32.93 3.08 30.65 4.79 30.65 7.91ZM48.27 12.39C48.27 12.63 48.27 12.68 48.47 12.68C48.79 12.68 49.73 12.64 50.15 12.64C50.57 12.64 51.39 12.68 51.72 12.68C51.88 12.68 51.88 12.61 51.88 12.40C51.88 12.24 51.88 12.18 51.72 12.18L50.79 12.18C50.71 12.18 50.67 9.93 50.67 8.20C50.67 8.01 50.67 8.01 50.79 8.01L56.03 8.01C56.10 8.01 56.11 8.01 56.11 8.18L56.11 9.91C56.11 11.05 56.10 12.18 56.04 12.18L55.27 12.18C55.05 12.18 55.01 12.19 55.01 12.39C55.01 12.63 55.02 12.68 55.22 12.68C55.54 12.68 56.38 12.64 56.80 12.64C57.22 12.64 57.81 12.68 58.13 12.68C58.30 12.68 58.31 12.61 58.31 12.40C58.31 12.24 58.30 12.18 58.13 12.18L57.39 12.18C57.34 12.18 57.33 9.27 57.33 7.04C57.33 5.40 57.33 3.70 57.37 3.70L57.99 3.70C58.21 3.70 58.25 3.68 58.25 3.49C58.25 3.25 58.24 3.19 58.04 3.19C57.90 3.19 57.27 3.23 56.69 3.23C56.01 3.23 55.41 3.19 55.19 3.19C54.99 3.19 54.96 3.22 54.96 3.44C54.96 3.67 55.03 3.70 55.20 3.70L56 3.70C56.06 3.70 56.11 4.79 56.11 5.71L56.11 7.42C56.11 7.59 56.11 7.59 55.94 7.59L50.83 7.59C50.67 7.59 50.67 7.59 50.67 7.38C50.67 6.96 50.65 6.23 50.65 5.53C50.65 4.66 50.67 3.70 50.72 3.70L51.49 3.70C51.72 3.70 51.76 3.68 51.76 3.49C51.76 3.25 51.74 3.19 51.55 3.19C51.23 3.19 50.64 3.23 50.04 3.23C49.45 3.23 48.96 3.19 48.73 3.19C48.55 3.19 48.45 3.21 48.45 3.44C48.45 3.68 48.57 3.70 48.73 3.70L49.35 3.70C49.41 3.70 49.42 5.59 49.42 7.18L49.42 8.61C49.42 10.08 49.41 12.18 49.34 12.18L48.52 12.18C48.30 12.18 48.27 12.19 48.27 12.39ZM66.08 5.01C66.08 5.17 66.26 5.17 66.39 5.17C66.54 5.17 66.58 5.15 66.60 4.97L66.71 3.89C66.72 3.81 67.27 3.75 68.03 3.75L70.01 3.75C70.07 3.75 70.10 4.35 70.10 4.97C70.10 6.43 70.04 12.18 69.92 12.18L69.05 12.18C68.82 12.18 68.78 12.19 68.78 12.39C68.78 12.63 68.80 12.68 68.99 12.68C69.31 12.68 70.29 12.64 70.71 12.64C71.13 12.64 72.07 12.68 72.39 12.68C72.56 12.68 72.59 12.61 72.59 12.40C72.59 12.24 72.56 12.18 72.39 12.18L71.40 12.18C71.37 12.18 71.37 11.76 71.37 11.31C71.37 9.56 71.46 5.96 71.46 5.92C71.47 5.18 71.47 3.75 71.57 3.75L73.18 3.75C73.89 3.75 74.72 3.78 74.72 3.85C74.72 3.99 74.68 4.90 74.68 4.97C74.68 5.12 74.75 5.17 74.93 5.17C75.12 5.17 75.19 5.17 75.19 5.03C75.19 3.93 75.25 3.40 75.25 3.14C75.25 2.94 75.17 2.94 74.97 2.94C74.82 2.94 74.76 2.98 74.75 3.16C74.75 3.23 74.10 3.28 73.26 3.28L68.26 3.28C67.61 3.28 66.79 3.28 66.79 3.21L66.79 3.07C66.79 2.94 66.67 2.94 66.57 2.94C66.35 2.94 66.32 3.00 66.30 3.19C66.25 3.89 66.08 4.97 66.08 5.01ZM92.81 12.39C92.81 12.63 92.83 12.68 93.03 12.68C93.35 12.68 94.32 12.64 94.74 12.64C95.16 12.64 99.67 12.68 99.99 12.68C100.11 12.68 100.27 12.66 100.27 12.49C100.27 12.07 100.31 11.23 100.31 10.53C100.31 10.39 100.16 10.39 100.03 10.39C99.92 10.39 99.79 10.39 99.79 10.51C99.78 11.06 99.78 11.41 99.75 11.76C99.72 12.01 99.72 12.04 99.62 12.04C99.47 12.04 96.84 12.08 95.34 12.08C95.27 12.08 95.23 10.11 95.19 8.26C95.19 8.06 95.23 8.09 95.37 8.09L97.65 8.09C98.35 8.09 98.38 8.20 98.38 8.30L98.38 9.00C98.38 9.14 98.56 9.14 98.67 9.14C98.77 9.14 98.90 9.13 98.90 9.02C98.90 8.83 98.87 8.33 98.87 7.83C98.87 7.32 98.90 6.83 98.90 6.71C98.90 6.59 98.76 6.58 98.66 6.58C98.55 6.58 98.38 6.59 98.38 6.72L98.38 7.45C98.38 7.62 97.93 7.63 97.65 7.63L95.31 7.63C95.20 7.63 95.19 7.63 95.19 7.45C95.17 6.75 95.16 6.06 95.16 5.46C95.16 5.12 95.16 3.71 95.24 3.71C96.47 3.71 98.98 3.75 98.98 3.81C98.98 3.99 98.94 4.83 98.94 4.89C98.94 5.04 99.01 5.10 99.19 5.10C99.39 5.10 99.46 5.08 99.46 4.94C99.46 3.85 99.51 3.36 99.51 3.09C99.51 2.91 99.43 2.90 99.23 2.90C99.04 2.90 99.04 2.95 99.01 3.11C98.99 3.25 99.06 3.25 98.15 3.25C97.54 3.25 95.40 3.29 94.63 3.29C94.14 3.29 93.20 3.25 93.10 3.25C92.97 3.25 92.92 3.30 92.92 3.49C92.92 3.72 92.99 3.74 93.16 3.74L93.81 3.74C93.87 3.74 93.94 4.79 93.94 5.71C93.94 5.80 94.00 8.27 94.00 9.83L94.00 11.17C94.00 11.84 93.97 12.18 93.94 12.18L93.09 12.18C92.86 12.18 92.81 12.21 92.81 12.39ZM107.86 3.51C107.86 3.75 107.95 3.77 108.12 3.77L108.56 3.77C108.64 3.77 111.43 10.99 111.47 11.07C111.96 12.18 112.06 12.99 112.27 12.99C112.53 12.99 112.59 12.67 112.87 12.26C113.02 12.04 113.11 12.01 113.26 11.66L116.49 4.06C116.61 3.81 116.59 3.77 116.96 3.77C117.18 3.77 117.25 3.75 117.25 3.56C117.25 3.32 117.21 3.26 117.01 3.26C116.87 3.26 116.34 3.30 115.92 3.30C115.50 3.30 114.67 3.26 114.45 3.26C114.25 3.26 114.20 3.29 114.20 3.51C114.20 3.75 114.32 3.77 114.49 3.77L115.49 3.77C115.56 3.77 115.57 3.81 115.57 3.95C115.57 4.63 113.89 8.72 113.16 10.63C113.02 10.99 112.94 11.17 112.90 11.17C112.85 11.17 112.76 10.98 112.62 10.60C112.04 9.10 110.91 6.01 110.39 4.49C110.31 4.27 110.22 3.93 110.22 3.79L110.22 3.77L111.20 3.77C111.43 3.77 111.50 3.75 111.50 3.56C111.50 3.32 111.45 3.26 111.26 3.26C110.94 3.26 109.86 3.30 109.44 3.30C109.02 3.30 108.30 3.26 108.12 3.26C107.94 3.26 107.86 3.28 107.86 3.51ZM124.87 12.39C124.87 12.63 124.89 12.68 125.09 12.68C125.41 12.68 126.38 12.64 126.80 12.64C127.22 12.64 131.73 12.68 132.05 12.68C132.17 12.68 132.33 12.66 132.33 12.49C132.33 12.07 132.37 11.23 132.37 10.53C132.37 10.39 132.22 10.39 132.09 10.39C131.98 10.39 131.85 10.39 131.85 10.51C131.84 11.06 131.84 11.41 131.81 11.76C131.78 12.01 131.78 12.04 131.68 12.04C131.53 12.04 128.90 12.08 127.40 12.08C127.33 12.08 127.29 10.11 127.25 8.26C127.25 8.06 127.29 8.09 127.43 8.09L129.71 8.09C130.41 8.09 130.44 8.20 130.44 8.30L130.44 9.00C130.44 9.14 130.62 9.14 130.73 9.14C130.83 9.14 130.96 9.13 130.96 9.02C130.96 8.83 130.93 8.33 130.93 7.83C130.93 7.32 130.96 6.83 130.96 6.71C130.96 6.59 130.82 6.58 130.72 6.58C130.61 6.58 130.44 6.59 130.44 6.72L130.44 7.45C130.44 7.62 129.99 7.63 129.71 7.63L127.37 7.63C127.26 7.63 127.25 7.63 127.25 7.45C127.23 6.75 127.22 6.06 127.22 5.46C127.22 5.12 127.22 3.71 127.30 3.71C128.53 3.71 131.04 3.75 131.04 3.81C131.04 3.99 131.00 4.83 131.00 4.89C131.00 5.04 131.07 5.10 131.25 5.10C131.45 5.10 131.52 5.08 131.52 4.94C131.52 3.85 131.57 3.36 131.57 3.09C131.57 2.91 131.49 2.90 131.29 2.90C131.10 2.90 131.10 2.95 131.07 3.11C131.05 3.25 131.12 3.25 130.21 3.25C129.60 3.25 127.46 3.29 126.69 3.29C126.20 3.29 125.26 3.25 125.16 3.25C125.03 3.25 124.98 3.30 124.98 3.49C124.98 3.72 125.05 3.74 125.22 3.74L125.87 3.74C125.93 3.74 126 4.79 126 5.71C126 5.80 126.06 8.27 126.06 9.83L126.06 11.17C126.06 11.84 126.03 12.18 126 12.18L125.15 12.18C124.92 12.18 124.87 12.21 124.87 12.39ZM140.34 12.39C140.34 12.63 140.35 12.68 140.55 12.68C140.73 12.68 141.11 12.64 141.72 12.64C142.35 12.64 142.91 12.68 143.23 12.68C143.40 12.68 143.40 12.61 143.40 12.40C143.40 12.24 143.40 12.18 143.23 12.18L142.03 12.18C141.99 12.18 141.97 11.54 141.97 10.79C141.97 9.46 141.99 7.48 141.99 5.99C141.99 5.25 141.99 4.84 142.00 4.28C142.00 4.02 142.07 4.14 142.20 4.28L149.09 12.66C149.17 12.75 149.25 12.89 149.37 12.89C149.48 12.89 149.55 12.77 149.55 12.54C149.55 12.39 149.72 6.65 149.73 4.48C149.73 4.06 149.76 3.70 149.79 3.70L150.42 3.70C150.64 3.70 150.70 3.68 150.70 3.49C150.70 3.25 150.70 3.19 150.50 3.19C150.30 3.19 149.87 3.23 149.31 3.23C148.69 3.23 147.90 3.19 147.80 3.19C147.63 3.19 147.63 3.26 147.63 3.47C147.63 3.64 147.63 3.70 147.80 3.70L149.10 3.70C149.11 3.70 149.11 4.33 149.11 4.44C149.11 5.85 149.14 8.33 149.14 9.70L149.14 10.29C149.14 10.57 149.13 10.65 148.90 10.37L143.22 3.39C143.11 3.25 143.08 3.19 142.91 3.19C142.83 3.19 142.45 3.23 142.14 3.23C141.85 3.23 140.77 3.19 140.57 3.19C140.41 3.19 140.38 3.26 140.38 3.47C140.38 3.64 140.41 3.70 140.57 3.70L141.48 3.70C141.48 4.17 141.44 8.53 141.37 10.79C141.34 11.69 141.36 12.18 141.25 12.18L140.60 12.18C140.38 12.18 140.34 12.19 140.34 12.39ZM158.47 5.01C158.47 5.17 158.65 5.17 158.77 5.17C158.93 5.17 158.97 5.15 158.98 4.97L159.10 3.89C159.11 3.81 159.66 3.75 160.41 3.75L162.40 3.75C162.46 3.75 162.48 4.35 162.48 4.97C162.48 6.43 162.43 12.18 162.30 12.18L161.43 12.18C161.21 12.18 161.17 12.19 161.17 12.39C161.17 12.63 161.18 12.68 161.38 12.68C161.70 12.68 162.68 12.64 163.10 12.64C163.52 12.64 164.46 12.68 164.78 12.68C164.95 12.68 164.98 12.61 164.98 12.40C164.98 12.24 164.95 12.18 164.78 12.18L163.79 12.18C163.76 12.18 163.76 11.76 163.76 11.31C163.76 9.56 163.84 5.96 163.84 5.92C163.86 5.18 163.86 3.75 163.95 3.75L165.56 3.75C166.28 3.75 167.10 3.78 167.10 3.85C167.10 3.99 167.06 4.90 167.06 4.97C167.06 5.12 167.13 5.17 167.31 5.17C167.51 5.17 167.58 5.17 167.58 5.03C167.58 3.93 167.64 3.40 167.64 3.14C167.64 2.94 167.55 2.94 167.36 2.94C167.20 2.94 167.15 2.98 167.13 3.16C167.13 3.23 166.49 3.28 165.65 3.28L160.65 3.28C159.99 3.28 159.18 3.28 159.18 3.21L159.18 3.07C159.18 2.94 159.05 2.94 158.96 2.94C158.73 2.94 158.70 3.00 158.69 3.19C158.63 3.89 158.47 4.97 158.47 5.01ZM175.60 5.77C175.60 9.07 180.59 8.20 180.59 10.65C180.59 11.59 179.75 12.31 178.77 12.31C177.94 12.31 176.34 11.83 176.32 11.47L176.23 10.15C176.22 9.97 176.15 9.91 175.97 9.91L175.90 9.91C175.69 9.91 175.69 10.00 175.69 10.12C175.69 10.32 175.80 11.66 175.83 12.17C175.84 12.38 177.10 12.85 178.64 12.85C180.21 12.85 181.82 11.87 181.82 10.11C181.82 6.79 176.85 7.87 176.85 5.32C176.85 4.31 177.63 3.56 178.67 3.56C179.69 3.56 180.78 4.58 180.78 4.89C180.78 5.01 180.74 5.73 180.74 5.78C180.74 5.92 180.78 5.99 181.05 5.99C181.29 5.99 181.30 5.94 181.30 5.75C181.30 5.04 181.38 3.68 181.38 3.53C181.38 3.30 181.34 3.29 181.08 3.29C180.85 3.29 180.84 3.32 180.82 3.53C180.82 3.61 180.81 3.78 180.77 3.78C180.71 3.78 180.63 3.74 180.56 3.68C179.76 3.14 179.14 3.08 178.64 3.08C177.11 3.08 175.60 4.17 175.60 5.77ZM199.58 3.49C199.58 3.72 199.70 3.74 199.86 3.74L200.48 3.74C200.54 3.74 200.61 4.79 200.61 5.71C200.61 5.80 200.66 8.27 200.66 9.83L200.66 11.17C200.66 11.84 200.65 12.18 200.59 12.18L200.00 12.18C199.78 12.18 199.71 12.19 199.71 12.39C199.71 12.63 199.72 12.68 199.92 12.68C200.13 12.68 200.97 12.64 201.39 12.64C201.81 12.64 202.75 12.68 203.07 12.68C203.24 12.68 203.27 12.61 203.27 12.40C203.27 12.24 203.24 12.18 203.07 12.18L201.94 12.18C201.88 12.18 201.89 10.16 201.85 8.33C201.85 8.08 201.84 8.09 202.03 8.09L204.46 8.09C205.16 8.09 205.18 8.19 205.18 8.30L205.18 9.16C205.18 9.28 205.37 9.28 205.48 9.28C205.58 9.28 205.70 9.28 205.70 9.17C205.70 8.99 205.67 8.33 205.67 7.83C205.67 7.32 205.70 6.82 205.70 6.69C205.70 6.58 205.59 6.58 205.46 6.58C205.30 6.58 205.18 6.58 205.18 6.71L205.18 7.45C205.18 7.62 204.74 7.63 204.46 7.63L202.03 7.63C201.82 7.63 201.85 7.66 201.85 7.45C201.84 7.13 201.82 6.15 201.82 5.26C201.82 4.52 201.84 3.71 201.91 3.71C203.31 3.71 205.49 3.75 205.79 3.79C205.79 3.96 205.74 4.82 205.74 4.89C205.74 5.04 205.81 5.10 206.00 5.10C206.19 5.10 206.26 5.08 206.26 4.94C206.26 3.85 206.32 3.36 206.32 3.09C206.32 2.93 206.23 2.90 206.04 2.90C205.91 2.90 205.84 2.90 205.81 3.11C205.80 3.25 205.87 3.25 204.92 3.25C204.32 3.25 202.03 3.29 201.29 3.29C200.80 3.29 199.86 3.25 199.77 3.25C199.64 3.25 199.58 3.30 199.58 3.49ZM214.35 8.15C214.35 11.17 216.69 12.80 218.95 12.80C221.73 12.80 223.71 10.89 223.71 8.06C223.71 5.33 221.96 3.11 219.16 3.11C216.55 3.11 214.35 5.10 214.35 8.15ZM215.75 7.77C215.75 5.64 217.04 3.58 219.02 3.58C221.26 3.58 222.33 5.81 222.33 7.94C222.33 10.08 221.23 12.32 218.96 12.32C216.97 12.32 215.75 10.28 215.75 7.77ZM231.81 3.51C231.81 3.72 231.88 3.79 232.08 3.79L232.89 3.77C232.99 3.77 233.03 6.61 233.03 8.55L233.03 10.42C233.03 11.30 233.02 12.18 232.97 12.18L232.37 12.18C232.15 12.18 232.08 12.19 232.08 12.39C232.08 12.63 232.12 12.68 232.32 12.68C232.44 12.68 233.27 12.64 233.69 12.64C234.11 12.64 234.88 12.68 235.20 12.68C235.37 12.68 235.40 12.61 235.40 12.40C235.40 12.24 235.37 12.18 235.20 12.18L234.39 12.18C234.32 12.18 234.23 9.18 234.23 8.37C234.23 8.30 234.23 8.26 234.35 8.26C234.74 8.26 235.34 8.27 235.63 8.27C237.87 8.32 238.01 10.00 238.01 11.68L238.01 12.49C238.01 12.61 238.07 12.64 238.17 12.64C238.17 12.64 239.61 12.68 240.09 12.68C240.25 12.68 240.31 12.64 240.31 12.53C240.31 12.24 240.25 12.18 240.10 12.18L239.46 12.18C239.36 12.18 239.33 12.14 239.30 11.31C239.22 8.99 237.85 8.34 236.94 8.05C236.80 8.01 236.82 8.01 236.94 7.95C237.52 7.69 238.84 6.94 238.84 5.63C238.84 3.63 237.15 3.21 235.75 3.21C235.42 3.21 234.14 3.29 233.72 3.29C233.30 3.29 232.32 3.26 232.09 3.26C231.91 3.26 231.81 3.28 231.81 3.51ZM234.23 7.80L234.23 4.40C234.23 4.05 234.26 3.68 234.30 3.68C234.51 3.65 234.79 3.65 235.02 3.65C236.32 3.65 237.57 4.47 237.57 5.82C237.57 6.99 237.02 7.57 236.36 7.88C236.32 7.90 236.28 7.90 236.21 7.90C235.73 7.88 235.02 7.88 234.42 7.87C234.25 7.87 234.23 7.85 234.23 7.80ZM257.59 12.39C257.59 12.63 257.61 12.68 257.81 12.68C258.13 12.68 259.10 12.64 259.52 12.64C259.94 12.64 264.45 12.68 264.77 12.68C264.89 12.68 265.05 12.66 265.05 12.49C265.05 12.07 265.09 11.23 265.09 10.53C265.09 10.39 264.94 10.39 264.81 10.39C264.70 10.39 264.57 10.39 264.57 10.51C264.56 11.06 264.56 11.41 264.53 11.76C264.50 12.01 264.50 12.04 264.40 12.04C264.25 12.04 261.62 12.08 260.12 12.08C260.05 12.08 260.01 10.11 259.97 8.26C259.97 8.06 260.01 8.09 260.15 8.09L262.43 8.09C263.13 8.09 263.16 8.20 263.16 8.30L263.16 9.00C263.16 9.14 263.34 9.14 263.45 9.14C263.55 9.14 263.68 9.13 263.68 9.02C263.68 8.83 263.65 8.33 263.65 7.83C263.65 7.32 263.68 6.83 263.68 6.71C263.68 6.59 263.54 6.58 263.44 6.58C263.33 6.58 263.16 6.59 263.16 6.72L263.16 7.45C263.16 7.62 262.71 7.63 262.43 7.63L260.09 7.63C259.98 7.63 259.97 7.63 259.97 7.45C259.95 6.75 259.94 6.06 259.94 5.46C259.94 5.12 259.94 3.71 260.02 3.71C261.25 3.71 263.76 3.75 263.76 3.81C263.76 3.99 263.72 4.83 263.72 4.89C263.72 5.04 263.79 5.10 263.97 5.10C264.17 5.10 264.24 5.08 264.24 4.94C264.24 3.85 264.29 3.36 264.29 3.09C264.29 2.91 264.21 2.90 264.01 2.90C263.82 2.90 263.82 2.95 263.79 3.11C263.77 3.25 263.84 3.25 262.93 3.25C262.32 3.25 260.18 3.29 259.41 3.29C258.92 3.29 257.98 3.25 257.88 3.25C257.75 3.25 257.70 3.30 257.70 3.49C257.70 3.72 257.77 3.74 257.94 3.74L258.59 3.74C258.65 3.74 258.72 4.79 258.72 5.71C258.72 5.80 258.78 8.27 258.78 9.83L258.78 11.17C258.78 11.84 258.75 12.18 258.72 12.18L257.87 12.18C257.64 12.18 257.59 12.21 257.59 12.39ZM272.64 3.51C272.64 3.75 272.73 3.77 272.90 3.77L273.34 3.77C273.42 3.77 276.21 10.99 276.25 11.07C276.74 12.18 276.84 12.99 277.05 12.99C277.31 12.99 277.37 12.67 277.65 12.26C277.80 12.04 277.89 12.01 278.04 11.66L281.27 4.06C281.39 3.81 281.37 3.77 281.74 3.77C281.96 3.77 282.03 3.75 282.03 3.56C282.03 3.32 281.99 3.26 281.79 3.26C281.65 3.26 281.12 3.30 280.70 3.30C280.28 3.30 279.45 3.26 279.23 3.26C279.03 3.26 278.98 3.29 278.98 3.51C278.98 3.75 279.10 3.77 279.27 3.77L280.27 3.77C280.34 3.77 280.35 3.81 280.35 3.95C280.35 4.63 278.67 8.72 277.94 10.63C277.80 10.99 277.72 11.17 277.68 11.17C277.63 11.17 277.54 10.98 277.40 10.60C276.82 9.10 275.69 6.01 275.17 4.49C275.09 4.27 275.00 3.93 275.00 3.79L275.00 3.77L275.98 3.77C276.21 3.77 276.28 3.75 276.28 3.56C276.28 3.32 276.23 3.26 276.04 3.26C275.72 3.26 274.64 3.30 274.22 3.30C273.80 3.30 273.08 3.26 272.90 3.26C272.72 3.26 272.64 3.28 272.64 3.51ZM289.65 12.39C289.65 12.63 289.67 12.68 289.87 12.68C290.19 12.68 291.16 12.64 291.58 12.64C292.00 12.64 296.51 12.68 296.83 12.68C296.95 12.68 297.11 12.66 297.11 12.49C297.11 12.07 297.15 11.23 297.15 10.53C297.15 10.39 297.00 10.39 296.87 10.39C296.76 10.39 296.63 10.39 296.63 10.51C296.62 11.06 296.62 11.41 296.59 11.76C296.56 12.01 296.56 12.04 296.46 12.04C296.31 12.04 293.68 12.08 292.18 12.08C292.11 12.08 292.07 10.11 292.03 8.26C292.03 8.06 292.07 8.09 292.21 8.09L294.49 8.09C295.19 8.09 295.22 8.20 295.22 8.30L295.22 9.00C295.22 9.14 295.40 9.14 295.51 9.14C295.61 9.14 295.74 9.13 295.74 9.02C295.74 8.83 295.71 8.33 295.71 7.83C295.71 7.32 295.74 6.83 295.74 6.71C295.74 6.59 295.60 6.58 295.50 6.58C295.39 6.58 295.22 6.59 295.22 6.72L295.22 7.45C295.22 7.62 294.77 7.63 294.49 7.63L292.15 7.63C292.04 7.63 292.03 7.63 292.03 7.45C292.01 6.75 292.00 6.06 292.00 5.46C292.00 5.12 292.00 3.71 292.08 3.71C293.31 3.71 295.82 3.75 295.82 3.81C295.82 3.99 295.78 4.83 295.78 4.89C295.78 5.04 295.85 5.10 296.03 5.10C296.23 5.10 296.30 5.08 296.30 4.94C296.30 3.85 296.35 3.36 296.35 3.09C296.35 2.91 296.27 2.90 296.07 2.90C295.88 2.90 295.88 2.95 295.85 3.11C295.83 3.25 295.90 3.25 294.99 3.25C294.38 3.25 292.24 3.29 291.47 3.29C290.98 3.29 290.04 3.25 289.94 3.25C289.81 3.25 289.76 3.30 289.76 3.49C289.76 3.72 289.83 3.74 290.00 3.74L290.65 3.74C290.71 3.74 290.78 4.79 290.78 5.71C290.78 5.80 290.84 8.27 290.84 9.83L290.84 11.17C290.84 11.84 290.81 12.18 290.78 12.18L289.93 12.18C289.70 12.18 289.65 12.21 289.65 12.39ZM305.12 3.51C305.12 3.72 305.19 3.79 305.38 3.79L306.19 3.77C306.29 3.77 306.33 6.61 306.33 8.55L306.33 10.42C306.33 11.30 306.32 12.18 306.28 12.18L305.68 12.18C305.45 12.18 305.38 12.19 305.38 12.39C305.38 12.63 305.42 12.68 305.62 12.68C305.75 12.68 306.57 12.64 306.99 12.64C307.41 12.64 308.18 12.68 308.50 12.68C308.67 12.68 308.70 12.61 308.70 12.40C308.70 12.24 308.67 12.18 308.50 12.18L307.69 12.18C307.62 12.18 307.54 9.18 307.54 8.37C307.54 8.30 307.54 8.26 307.65 8.26C308.04 8.26 308.64 8.27 308.94 8.27C311.18 8.32 311.32 10.00 311.32 11.68L311.32 12.49C311.32 12.61 311.37 12.64 311.47 12.64C311.47 12.64 312.91 12.68 313.39 12.68C313.56 12.68 313.61 12.64 313.61 12.53C313.61 12.24 313.56 12.18 313.40 12.18L312.76 12.18C312.66 12.18 312.63 12.14 312.61 11.31C312.52 8.99 311.15 8.34 310.24 8.05C310.10 8.01 310.13 8.01 310.24 7.95C310.83 7.69 312.14 6.94 312.14 5.63C312.14 3.63 310.45 3.21 309.05 3.21C308.73 3.21 307.44 3.29 307.02 3.29C306.60 3.29 305.62 3.26 305.40 3.26C305.21 3.26 305.12 3.28 305.12 3.51ZM307.54 7.80L307.54 4.40C307.54 4.05 307.57 3.68 307.61 3.68C307.82 3.65 308.10 3.65 308.32 3.65C309.62 3.65 310.87 4.47 310.87 5.82C310.87 6.99 310.32 7.57 309.67 7.88C309.62 7.90 309.58 7.90 309.51 7.90C309.04 7.88 308.32 7.88 307.72 7.87C307.55 7.87 307.54 7.85 307.54 7.80ZM320.25 3.44C320.25 3.68 320.33 3.70 320.50 3.70L320.91 3.70C321.03 3.70 323.29 7.74 323.69 8.50C323.75 8.60 323.79 8.65 323.79 8.81C323.79 10.50 323.78 12.18 323.65 12.18L322.94 12.18C322.71 12.18 322.67 12.19 322.67 12.39C322.67 12.63 322.69 12.68 322.88 12.68C323.08 12.68 323.89 12.64 324.48 12.64C325.30 12.64 325.84 12.68 326.16 12.68C326.33 12.68 326.35 12.61 326.35 12.40C326.35 12.24 326.33 12.18 326.16 12.18L325.19 12.18C325.09 12.18 325.07 9.72 325.07 8.22C325.07 8.18 325.07 8.15 325.11 8.09C325.65 7.22 327.60 3.70 327.67 3.70L328.15 3.70C328.31 3.70 328.41 3.68 328.41 3.44C328.41 3.22 328.33 3.19 328.15 3.19C327.92 3.19 327.68 3.23 327.08 3.23C326.49 3.23 326.16 3.19 325.99 3.19C325.79 3.19 325.75 3.25 325.75 3.49C325.75 3.68 325.82 3.70 326.05 3.70L326.77 3.70C326.79 3.70 326.80 3.71 326.80 3.74C326.80 4.05 325.23 6.99 324.86 7.71C324.74 7.92 324.74 7.88 324.63 7.67C324.23 6.89 322.94 4.56 322.64 3.85C322.59 3.71 322.57 3.70 322.76 3.70L323.58 3.70C323.81 3.70 323.83 3.68 323.83 3.49C323.83 3.25 323.79 3.19 323.64 3.19C323.40 3.19 322.78 3.23 321.99 3.23C321.17 3.23 320.68 3.19 320.50 3.19C320.32 3.19 320.25 3.21 320.25 3.44ZM335.54 8.15C335.54 11.17 337.88 12.80 340.13 12.80C342.92 12.80 344.89 10.89 344.89 8.06C344.89 5.33 343.14 3.11 340.34 3.11C337.74 3.11 335.54 5.10 335.54 8.15ZM336.94 7.77C336.94 5.64 338.23 3.58 340.20 3.58C342.44 3.58 343.52 5.81 343.52 7.94C343.52 10.08 342.41 12.32 340.14 12.32C338.16 12.32 336.94 10.28 336.94 7.77ZM353.00 12.39C353.00 12.63 353.01 12.68 353.21 12.68C353.39 12.68 353.77 12.64 354.38 12.64C355.01 12.64 355.57 12.68 355.89 12.68C356.06 12.68 356.06 12.61 356.06 12.40C356.06 12.24 356.06 12.18 355.89 12.18L354.69 12.18C354.65 12.18 354.63 11.54 354.63 10.79C354.63 9.46 354.65 7.48 354.65 5.99C354.65 5.25 354.65 4.84 354.66 4.28C354.66 4.02 354.73 4.14 354.86 4.28L361.75 12.66C361.83 12.75 361.91 12.89 362.03 12.89C362.14 12.89 362.21 12.77 362.21 12.54C362.21 12.39 362.38 6.65 362.39 4.48C362.39 4.06 362.42 3.70 362.45 3.70L363.08 3.70C363.30 3.70 363.36 3.68 363.36 3.49C363.36 3.25 363.36 3.19 363.16 3.19C362.96 3.19 362.53 3.23 361.97 3.23C361.35 3.23 360.56 3.19 360.46 3.19C360.29 3.19 360.29 3.26 360.29 3.47C360.29 3.64 360.29 3.70 360.46 3.70L361.76 3.70C361.77 3.70 361.77 4.33 361.77 4.44C361.77 5.85 361.80 8.33 361.80 9.70L361.80 10.29C361.80 10.57 361.79 10.65 361.56 10.37L355.88 3.39C355.77 3.25 355.74 3.19 355.57 3.19C355.49 3.19 355.11 3.23 354.80 3.23C354.51 3.23 353.43 3.19 353.23 3.19C353.07 3.19 353.04 3.26 353.04 3.47C353.04 3.64 353.07 3.70 353.23 3.70L354.14 3.70C354.14 4.17 354.10 8.53 354.03 10.79C354.00 11.69 354.02 12.18 353.91 12.18L353.26 12.18C353.04 12.18 353.00 12.19 353.00 12.39ZM371.39 12.39C371.39 12.63 371.42 12.68 371.62 12.68C371.94 12.68 372.90 12.64 373.32 12.64C373.74 12.64 378.25 12.68 378.57 12.68C378.70 12.68 378.85 12.66 378.85 12.49C378.85 12.07 378.90 11.23 378.90 10.53C378.90 10.39 378.74 10.39 378.62 10.39C378.50 10.39 378.38 10.39 378.38 10.51C378.36 11.06 378.36 11.41 378.34 11.76C378.31 12.01 378.31 12.04 378.21 12.04C378.06 12.04 375.42 12.08 373.93 12.08C373.86 12.08 373.81 10.11 373.77 8.26C373.77 8.06 373.81 8.09 373.95 8.09L376.24 8.09C376.94 8.09 376.96 8.20 376.96 8.30L376.96 9.00C376.96 9.14 377.15 9.14 377.26 9.14C377.36 9.14 377.48 9.13 377.48 9.02C377.48 8.83 377.45 8.33 377.45 7.83C377.45 7.32 377.48 6.83 377.48 6.71C377.48 6.59 377.34 6.58 377.24 6.58C377.13 6.58 376.96 6.59 376.96 6.72L376.96 7.45C376.96 7.62 376.52 7.63 376.24 7.63L373.90 7.63C373.79 7.63 373.77 7.63 373.77 7.45C373.76 6.75 373.74 6.06 373.74 5.46C373.74 5.12 373.74 3.71 373.83 3.71C375.06 3.71 377.57 3.75 377.57 3.81C377.57 3.99 377.52 4.83 377.52 4.89C377.52 5.04 377.59 5.10 377.78 5.10C377.97 5.10 378.04 5.08 378.04 4.94C378.04 3.85 378.10 3.36 378.10 3.09C378.10 2.91 378.01 2.90 377.82 2.90C377.62 2.90 377.62 2.95 377.59 3.11C377.58 3.25 377.65 3.25 376.74 3.25C376.12 3.25 373.98 3.29 373.21 3.29C372.72 3.29 371.78 3.25 371.69 3.25C371.56 3.25 371.50 3.30 371.50 3.49C371.50 3.72 371.57 3.74 371.74 3.74L372.40 3.74C372.46 3.74 372.53 4.79 372.53 5.71C372.53 5.80 372.58 8.27 372.58 9.83L372.58 11.17C372.58 11.84 372.55 12.18 372.53 12.18L371.67 12.18C371.45 12.18 371.39 12.21 371.39 12.39Z"></path></g></svg>